STARTFONT 2.1
FONT --Century18Rph-Regular-R-Normal--38-380-72-72-P-242-FONTSPECIFIC-0
SIZE 38 72 72
FONTBOUNDINGBOX 41 38 0 -7
METRICSSET 2
STARTPROPERTIES 19
FONT_ASCENT 31
FONT_DESCENT 7
PIXEL_SIZE 38
RESOLUTION_X 72
RESOLUTION_Y 72
POINT_SIZE 380
FACE_NAME "Classic 18-point H"
FOUNDRY ""
FAMILY_NAME "Century18Rph"
WEIGHT_NAME "Regular"
RELATIVE_WEIGHT 50
SLANT "R"
SPACING "P"
SETWIDTH_NAME "Normal"
RELATIVE_SETWIDTH 50
ADD_STYLE_NAME ""
AVERAGE_WIDTH 242
CHARSET_REGISTRY "FONTSPECIFIC"
CHARSET_ENCODING "0"
ENDPROPERTIES
CHARS 194
STARTCHAR char08
ENCODING 8
SWIDTH 579 0
DWIDTH 22 0
BBX 16 25 3 0
VVECTOR 11 31
SWIDTH1 0 -1000
DWIDTH1 0 -38
BITMAP 
C000
C000
C000
C000
C000
C000
C000
C100
C300
C700
CF00
DF00
FFFF
DF00
CF00
C700
C300
C100
C000
C000
C000
C000
C000
C000
C000
ENDCHAR
STARTCHAR char09
ENCODING 9
SWIDTH 579 0
DWIDTH 22 0
BBX 16 25 3 0
VVECTOR 11 31
SWIDTH1 0 -1000
DWIDTH1 0 -38
BITMAP 
0003
0003
0003
0003
0003
0003
0003
0083
00C3
00E3
00F3
00FB
FFFF
00FB
00F3
00E3
00C3
0083
0003
0003
0003
0003
0003
0003
0003
ENDCHAR
STARTCHAR char0C
ENCODING 12
SWIDTH 842 0
DWIDTH 32 0
BBX 23 25 4 0
VVECTOR 16 31
SWIDTH1 0 -1000
DWIDTH1 0 -38
BITMAP 
FFFFFE
800002
800002
800002
800002
800002
800002
800002
800002
800002
800002
800002
800002
800002
800002
800002
800002
800002
801002
803802
807C02
80FE02
71FF1C
03FF80
07FFC0
ENDCHAR
STARTCHAR char0D
ENCODING 13
SWIDTH 842 0
DWIDTH 32 0
BBX 18 26 6 -1
VVECTOR 15 31
SWIDTH1 0 -1000
DWIDTH1 0 -38
BITMAP 
07FE00
000180
0000C0
0000C0
0000C0
0000C0
0000C0
0000C0
0000C0
0000C0
0000C0
0000C0
0000C0
0000C0
0000C0
0400C0
0C00C0
1C00C0
3C00C0
7C0180
FFFE00
7C0000
3C0000
1C0000
0C0000
040000
ENDCHAR
STARTCHAR char1C
ENCODING 28
SWIDTH 579 0
DWIDTH 22 0
BBX 15 11 4 6
VVECTOR 12 31
SWIDTH1 0 -1000
DWIDTH1 0 -38
BITMAP 
0400
0C00
1C00
3C00
7C00
FFFE
7C00
3C00
1C00
0C00
0400
ENDCHAR
STARTCHAR char1D
ENCODING 29
SWIDTH 579 0
DWIDTH 22 0
BBX 15 11 3 6
VVECTOR 11 31
SWIDTH1 0 -1000
DWIDTH1 0 -38
BITMAP 
0040
0060
0070
0078
007C
FFFE
007C
0078
0070
0060
0040
ENDCHAR
STARTCHAR char1E
ENCODING 30
SWIDTH 579 0
DWIDTH 22 0
BBX 11 13 5 7
VVECTOR 11 31
SWIDTH1 0 -1000
DWIDTH1 0 -38
BITMAP 
0400
0E00
1F00
3F80
7FC0
FFE0
0400
0400
0400
0400
0400
0400
0400
ENDCHAR
STARTCHAR char1F
ENCODING 31
SWIDTH 579 0
DWIDTH 22 0
BBX 11 14 5 6
VVECTOR 11 31
SWIDTH1 0 -1000
DWIDTH1 0 -38
BITMAP 
0400
0400
0400
0400
0400
0400
0400
0400
FFE0
7FC0
3F80
1F00
0E00
0400
ENDCHAR
STARTCHAR char20
ENCODING 32
SWIDTH 447 0
DWIDTH 17 0
BBX 0 0 1 -7
VVECTOR 1 -7
SWIDTH1 0 0
DWIDTH1 0 0
BITMAP 
ENDCHAR
STARTCHAR char21
ENCODING 33
SWIDTH 368 0
DWIDTH 14 0
BBX 5 26 4 0
VVECTOR 7 31
SWIDTH1 0 -1000
DWIDTH1 0 -38
BITMAP 
20
70
70
70
70
70
70
70
70
70
70
70
70
70
70
70
20
20
00
00
00
00
70
F8
F8
70
ENDCHAR
STARTCHAR char22
ENCODING 34
SWIDTH 421 0
DWIDTH 16 0
BBX 12 8 2 17
VVECTOR 8 31
SWIDTH1 0 -1000
DWIDTH1 0 -38
BITMAP 
6060
F0F0
F0F0
6060
6060
2040
2040
2040
ENDCHAR
STARTCHAR char23
ENCODING 35
SWIDTH 842 0
DWIDTH 32 0
BBX 30 24 1 1
VVECTOR 16 31
SWIDTH1 0 -1000
DWIDTH1 0 -38
BITMAP 
00010020
00010020
00020040
00020040
00040080
00040080
00080100
0FFFFFFC
00100200
00200400
00200400
00400800
00400800
00801000
00801000
01002000
FFFFFF80
02004000
04008000
04008000
08010000
08010000
10020000
10020000
ENDCHAR
STARTCHAR char24
ENCODING 36
SWIDTH 579 0
DWIDTH 22 0
BBX 18 30 2 -3
VVECTOR 11 31
SWIDTH1 0 -1000
DWIDTH1 0 -38
BITMAP 
008000
008000
008000
07F800
188600
208100
408080
C08680
C08300
E08000
F08000
788000
3E8000
0FC000
03F000
00FC00
009F00
008780
0083C0
0081C0
6081C0
B081C0
808180
408300
308600
0FF000
008000
008000
008000
008000
ENDCHAR
STARTCHAR char25
ENCODING 37
SWIDTH 842 0
DWIDTH 32 0
BBX 27 24 2 0
VVECTOR 16 31
SWIDTH1 0 -1000
DWIDTH1 0 -38
BITMAP 
1F800000
20400180
40200300
C0300600
C0300C00
C0301800
C0303000
C0306000
4020C000
20418000
1F830000
00060000
000C0000
00183F00
00304080
00608040
00C18060
01818060
03018060
06018060
0C018060
18008040
30004080
00003F00
ENDCHAR
STARTCHAR char26
ENCODING 38
SWIDTH 816 0
DWIDTH 31 0
BBX 29 25 1 0
VVECTOR 16 31
SWIDTH1 0 -1000
DWIDTH1 0 -38
BITMAP 
00780000
01860000
03030000
06018000
0E018000
0E018000
0E010000
06030000
0F060000
070C0000
07B00000
03C00000
01C03FF8
06E00580
1C700300
38380300
781C0300
F00E0200
F0070200
F0038400
F001C800
7800F000
38017010
0C063820
03F80FC0
ENDCHAR
STARTCHAR char27
ENCODING 39
SWIDTH 263 0
DWIDTH 10 0
BBX 4 8 3 17
VVECTOR 5 31
SWIDTH1 0 -1000
DWIDTH1 0 -38
BITMAP 
60
F0
F0
60
60
20
20
20
ENDCHAR
STARTCHAR char28
ENCODING 40
SWIDTH 395 0
DWIDTH 15 0
BBX 12 33 1 -5
VVECTOR 7 31
SWIDTH1 0 -1000
DWIDTH1 0 -38
BITMAP 
0070
0180
0600
0C00
1800
3000
3000
6000
6000
E000
6000
E000
E000
E000
E000
E000
E000
E000
E000
E000
E000
E000
6000
E000
6000
6000
3000
3000
1800
0C00
0600
0180
0070
ENDCHAR
STARTCHAR char29
ENCODING 41
SWIDTH 395 0
DWIDTH 15 0
BBX 12 33 2 -5
VVECTOR 8 31
SWIDTH1 0 -1000
DWIDTH1 0 -38
BITMAP 
E000
1800
0600
0300
0180
00C0
00C0
0060
0060
0070
0060
0070
0070
0070
0070
0070
0070
0070
0070
0070
0070
0070
0060
0070
0060
0060
00C0
00C0
0180
0300
0600
1800
E000
ENDCHAR
STARTCHAR char2A
ENCODING 42
SWIDTH 579 0
DWIDTH 22 0
BBX 17 13 2 8
VVECTOR 11 31
SWIDTH1 0 -1000
DWIDTH1 0 -38
BITMAP 
300600
180C00
0C1800
063000
036000
01C000
FEBF80
01C000
036000
063000
0C1800
180C00
300600
ENDCHAR
STARTCHAR char2B
ENCODING 43
SWIDTH 842 0
DWIDTH 32 0
BBX 23 17 4 5
VVECTOR 16 31
SWIDTH1 0 -1000
DWIDTH1 0 -38
BITMAP 
003000
003000
003000
003000
003000
003000
003000
003000
FFFFFE
003000
003000
003000
003000
003000
003000
003000
003000
ENDCHAR
STARTCHAR char2C
ENCODING 44
SWIDTH 263 0
DWIDTH 10 0
BBX 5 9 3 -6
VVECTOR 6 31
SWIDTH1 0 -1000
DWIDTH1 0 -38
BITMAP 
70
F8
68
18
18
10
20
40
80
ENDCHAR
STARTCHAR char2D
ENCODING 45
SWIDTH 842 0
DWIDTH 32 0
BBX 24 1 4 13
VVECTOR 16 31
SWIDTH1 0 -1000
DWIDTH1 0 -38
BITMAP 
FFFFFF
ENDCHAR
STARTCHAR char2E
ENCODING 46
SWIDTH 263 0
DWIDTH 10 0
BBX 5 4 3 0
VVECTOR 6 31
SWIDTH1 0 -1000
DWIDTH1 0 -38
BITMAP 
70
F8
F8
70
ENDCHAR
STARTCHAR char2F
ENCODING 47
SWIDTH 395 0
DWIDTH 15 0
BBX 11 25 2 0
VVECTOR 8 31
SWIDTH1 0 -1000
DWIDTH1 0 -38
BITMAP 
0020
0020
0040
0040
0080
0080
0080
0100
0100
0200
0200
0400
0400
0400
0800
0800
1000
1000
2000
2000
2000
4000
4000
8000
8000
ENDCHAR
STARTCHAR char30
ENCODING 48
SWIDTH 579 0
DWIDTH 22 0
BBX 18 26 2 0
VVECTOR 11 31
SWIDTH1 0 -1000
DWIDTH1 0 -38
BITMAP 
01E000
061800
080400
180600
300300
300300
700380
600180
F003C0
E001C0
E001C0
E001C0
E001C0
E001C0
E001C0
E001C0
E001C0
F003C0
600180
700380
300300
300300
180600
080400
061800
01E000
ENDCHAR
STARTCHAR char31
ENCODING 49
SWIDTH 579 0
DWIDTH 22 0
BBX 15 25 3 0
VVECTOR 11 31
SWIDTH1 0 -1000
DWIDTH1 0 -38
BITMAP 
0180
0380
0780
1B80
6380
0380
0380
0380
0380
0380
0380
0380
0380
0380
0380
0380
0380
0380
0380
0380
0380
0380
0380
07C0
FFFE
ENDCHAR
STARTCHAR char32
ENCODING 50
SWIDTH 579 0
DWIDTH 22 0
BBX 18 25 2 0
VVECTOR 11 31
SWIDTH1 0 -1000
DWIDTH1 0 -38
BITMAP 
0FF000
300E00
400700
800780
800380
F003C0
6003C0
000380
000780
000700
000E00
001C00
003000
00C000
018000
020000
040000
080000
100040
200040
400040
4000C0
8001C0
FFFFC0
FFFFC0
ENDCHAR
STARTCHAR char33
ENCODING 51
SWIDTH 579 0
DWIDTH 22 0
BBX 18 25 2 0
VVECTOR 11 31
SWIDTH1 0 -1000
DWIDTH1 0 -38
BITMAP 
07F000
180E00
200700
400700
700380
780380
300300
000700
000600
000C00
001800
03E000
001800
000600
000300
000380
000180
0001C0
6001C0
F001C0
E00380
800380
400700
301C00
0FE000
ENDCHAR
STARTCHAR char34
ENCODING 52
SWIDTH 579 0
DWIDTH 22 0
BBX 20 25 1 0
VVECTOR 11 31
SWIDTH1 0 -1000
DWIDTH1 0 -38
BITMAP 
000E00
001E00
001600
002E00
004E00
004E00
008E00
010E00
010E00
020E00
040E00
040E00
080E00
100E00
100E00
200E00
400E00
FFFFF0
000E00
000E00
000E00
000E00
000E00
001F00
01FFF0
ENDCHAR
STARTCHAR char35
ENCODING 53
SWIDTH 579 0
DWIDTH 22 0
BBX 18 25 2 0
VVECTOR 11 31
SWIDTH1 0 -1000
DWIDTH1 0 -38
BITMAP 
7FFF80
5FFF00
400000
400000
400000
400000
400000
400000
400000
43E000
4C1C00
500700
600380
4001C0
000380
0001C0
0001C0
6001C0
F001C0
E00380
8001C0
800380
400700
301C00
0FE000
ENDCHAR
STARTCHAR char36
ENCODING 54
SWIDTH 579 0
DWIDTH 22 0
BBX 18 25 2 0
VVECTOR 11 31
SWIDTH1 0 -1000
DWIDTH1 0 -38
BITMAP 
01F800
060600
080100
180080
300080
300680
600700
600000
600000
E00000
E1F000
E60C00
E80700
D00380
D00380
E001C0
E001C0
E001C0
6001C0
6001C0
300380
300380
180700
061C00
01E000
ENDCHAR
STARTCHAR char37
ENCODING 55
SWIDTH 579 0
DWIDTH 22 0
BBX 18 25 2 0
VVECTOR 11 31
SWIDTH1 0 -1000
DWIDTH1 0 -38
BITMAP 
FFFFC0
FFFFC0
C00080
C00100
800200
800400
800800
001000
003000
006000
00E000
00E000
01C000
01C000
01C000
03C000
03C000
03C000
03C000
03C000
03C000
03C000
03C000
03C000
018000
ENDCHAR
STARTCHAR char38
ENCODING 56
SWIDTH 579 0
DWIDTH 22 0
BBX 18 25 2 0
VVECTOR 11 31
SWIDTH1 0 -1000
DWIDTH1 0 -38
BITMAP 
03F800
040600
180300
300300
300180
700180
700180
380300
3C0200
1E0400
0F9800
03E000
017800
063E00
180F00
200780
6003C0
C001C0
C001C0
C001C0
6001C0
600180
300300
0C0C00
03F000
ENDCHAR
STARTCHAR char39
ENCODING 57
SWIDTH 579 0
DWIDTH 22 0
BBX 18 25 2 0
VVECTOR 11 31
SWIDTH1 0 -1000
DWIDTH1 0 -38
BITMAP 
03E000
1C1800
380600
700700
700300
E00780
E00380
E003C0
E00380
E003C0
7007C0
7005C0
380BC0
0C31C0
03C1C0
000180
0001C0
000180
300180
780100
500300
400200
200C00
183000
07C000
ENDCHAR
STARTCHAR char3A
ENCODING 58
SWIDTH 263 0
DWIDTH 10 0
BBX 5 15 3 0
VVECTOR 6 31
SWIDTH1 0 -1000
DWIDTH1 0 -38
BITMAP 
70
F8
F8
70
00
00
00
00
00
00
00
70
F8
F8
70
ENDCHAR
STARTCHAR char3B
ENCODING 59
SWIDTH 263 0
DWIDTH 10 0
BBX 5 21 3 -6
VVECTOR 6 31
SWIDTH1 0 -1000
DWIDTH1 0 -38
BITMAP 
70
F8
F8
70
00
00
00
00
00
00
00
00
70
F8
68
18
18
10
20
40
80
ENDCHAR
STARTCHAR char3C
ENCODING 60
SWIDTH 579 0
DWIDTH 22 0
BBX 9 15 6 6
VVECTOR 11 31
SWIDTH1 0 -1000
DWIDTH1 0 -38
BITMAP 
0180
0300
0600
0C00
1800
3000
6000
C000
6000
3000
1800
0C00
0600
0300
0180
ENDCHAR
STARTCHAR char3D
ENCODING 61
SWIDTH 842 0
DWIDTH 32 0
BBX 24 7 4 10
VVECTOR 16 31
SWIDTH1 0 -1000
DWIDTH1 0 -38
BITMAP 
FFFFFF
000000
000000
000000
000000
000000
FFFFFF
ENDCHAR
STARTCHAR char3E
ENCODING 62
SWIDTH 579 0
DWIDTH 22 0
BBX 9 15 7 6
VVECTOR 12 31
SWIDTH1 0 -1000
DWIDTH1 0 -38
BITMAP 
C000
6000
3000
1800
0C00
0600
0300
0180
0300
0600
0C00
1800
3000
6000
C000
ENDCHAR
STARTCHAR char3F
ENCODING 63
SWIDTH 579 0
DWIDTH 22 0
BBX 17 25 2 0
VVECTOR 11 31
SWIDTH1 0 -1000
DWIDTH1 0 -38
BITMAP 
0FF800
300E00
400700
800700
A00380
F00380
600380
000700
000700
000E00
001C00
003000
004000
008000
008000
010000
010000
010000
000000
000000
000000
038000
07C000
07C000
038000
ENDCHAR
STARTCHAR char40
ENCODING 64
SWIDTH 842 0
DWIDTH 32 0
BBX 24 20 4 3
VVECTOR 16 31
SWIDTH1 0 -1000
DWIDTH1 0 -38
BITMAP 
01FF80
060060
180018
30000C
200004
603986
C0C583
C18283
C18183
C18183
C18183
C18183
C18286
C0C444
603838
200000
300000
180000
060000
01FFC0
ENDCHAR
STARTCHAR char41
ENCODING 65
SWIDTH 737 0
DWIDTH 28 0
BBX 26 26 1 0
VVECTOR 14 31
SWIDTH1 0 -1000
DWIDTH1 0 -38
BITMAP 
000C0000
000C0000
001E0000
001E0000
002F0000
00270000
00270000
00438000
00438000
00438000
0081C000
0081C000
0081C000
0100E000
0100E000
0100E000
03FF7000
02007000
02007000
04003800
04003800
04003800
08001C00
08001C00
1C003E00
FF81FFC0
ENDCHAR
STARTCHAR char42
ENCODING 66
SWIDTH 711 0
DWIDTH 27 0
BBX 23 25 2 0
VVECTOR 14 31
SWIDTH1 0 -1000
DWIDTH1 0 -38
BITMAP 
FFFF00
1E00C0
0E0070
0E0038
0E0038
0E001C
0E001C
0E001C
0E0038
0E0038
0E0070
0E00C0
0FFF80
0E0060
0E0038
0E001C
0E001C
0E000E
0E000E
0E000E
0E001C
0E001C
0E0038
1E0060
FFFF80
ENDCHAR
STARTCHAR char43
ENCODING 67
SWIDTH 632 0
DWIDTH 24 0
BBX 21 25 2 0
VVECTOR 13 31
SWIDTH1 0 -1000
DWIDTH1 0 -38
BITMAP 
007C10
018310
0700D0
0E0070
1C0030
380010
380010
700010
780000
F00000
700000
F00000
F00000
F00000
700000
F00000
780000
700008
380008
380010
1C0010
0E0020
070040
018180
007E00
ENDCHAR
STARTCHAR char44
ENCODING 68
SWIDTH 816 0
DWIDTH 31 0
BBX 27 25 2 0
VVECTOR 16 31
SWIDTH1 0 -1000
DWIDTH1 0 -38
BITMAP 
FFFFC000
0F803000
07001C00
07000E00
07000700
07000380
07000380
070001C0
070003C0
070001E0
070001C0
070001E0
070001E0
070001E0
070001C0
070001E0
070003C0
070001C0
07000380
07000380
07000700
07000E00
07001C00
0F803000
FFFFC000
ENDCHAR
STARTCHAR char45
ENCODING 69
SWIDTH 737 0
DWIDTH 28 0
BBX 24 25 2 0
VVECTOR 14 31
SWIDTH1 0 -1000
DWIDTH1 0 -38
BITMAP 
FFFFFE
0F001E
07000E
070006
070002
070002
070002
070000
070080
070080
070180
070180
07FF80
070180
070180
070080
070080
070000
070001
070001
070001
070003
070007
0F000F
FFFFFF
ENDCHAR
STARTCHAR char46
ENCODING 70
SWIDTH 711 0
DWIDTH 27 0
BBX 23 25 2 0
VVECTOR 14 31
SWIDTH1 0 -1000
DWIDTH1 0 -38
BITMAP 
FFFFFE
0F001E
07000E
070006
070002
070002
070002
070000
070080
070080
070180
070180
07FF80
070180
070180
070080
070080
070000
070000
070000
070000
070000
070000
0F8000
FFF800
ENDCHAR
STARTCHAR char47
ENCODING 71
SWIDTH 789 0
DWIDTH 30 0
BBX 27 25 2 0
VVECTOR 16 31
SWIDTH1 0 -1000
DWIDTH1 0 -38
BITMAP 
007F8400
01806400
07003400
0E001C00
1C000C00
3C000400
38000400
78000400
70000000
F8000000
70000000
F0000000
F0000000
F0000000
7003FFE0
F8003E00
70001C00
78001C00
38001C00
3C001C00
1C001C00
0E003C00
07005C00
01C18C00
003E0400
ENDCHAR
STARTCHAR char48
ENCODING 72
SWIDTH 868 0
DWIDTH 33 0
BBX 29 25 2 0
VVECTOR 17 31
SWIDTH1 0 -1000
DWIDTH1 0 -38
BITMAP 
FFF07FF8
0F800F80
07000700
07000700
07000700
07000700
07000700
07000700
07000700
07000700
07000700
07000700
07FFFF00
07000700
07000700
07000700
07000700
07000700
07000700
07000700
07000700
07000700
07000700
0F800F80
FFF07FF8
ENDCHAR
STARTCHAR char49
ENCODING 73
SWIDTH 447 0
DWIDTH 17 0
BBX 13 25 2 0
VVECTOR 9 31
SWIDTH1 0 -1000
DWIDTH1 0 -38
BITMAP 
FFF8
0F80
0700
0700
0700
0700
0700
0700
0700
0700
0700
0700
0700
0700
0700
0700
0700
0700
0700
0700
0700
0700
0700
0F80
FFF8
ENDCHAR
STARTCHAR char4A
ENCODING 74
SWIDTH 579 0
DWIDTH 22 0
BBX 19 25 1 0
VVECTOR 11 31
SWIDTH1 0 -1000
DWIDTH1 0 -38
BITMAP 
03FFE0
003E00
001C00
001C00
001C00
001C00
001C00
001C00
001C00
001C00
001C00
001C00
001C00
001C00
001C00
001C00
001C00
701C00
F81C00
B01C00
801800
803800
403000
30E000
0F0000
ENDCHAR
STARTCHAR char4B
ENCODING 75
SWIDTH 868 0
DWIDTH 33 0
BBX 30 25 2 0
VVECTOR 17 31
SWIDTH1 0 -1000
DWIDTH1 0 -38
BITMAP 
FFF03FF0
0F800700
07000400
07000800
07001000
07002000
07004000
07008000
07010000
07020000
07040000
070C0000
071E0000
072F0000
07478000
0683C000
0701E000
0700F000
07007800
07003C00
07001E00
07000F00
07000780
0F8003C0
FFF03FFC
ENDCHAR
STARTCHAR char4C
ENCODING 76
SWIDTH 684 0
DWIDTH 26 0
BBX 22 25 2 0
VVECTOR 13 31
SWIDTH1 0 -1000
DWIDTH1 0 -38
BITMAP 
FFF800
0F8000
070000
070000
070000
070000
070000
070000
070000
070000
070000
070000
070000
070000
070000
070000
070000
070000
070004
070004
070004
07000C
07001C
0F803C
FFFFFC
ENDCHAR
STARTCHAR char4D
ENCODING 77
SWIDTH 1000 0
DWIDTH 38 0
BBX 34 25 2 0
VVECTOR 19 31
SWIDTH1 0 -1000
DWIDTH1 0 -38
BITMAP 
FF80007FC0
0FC000FC00
07C000F800
05E000B800
04E0013800
04F0013800
0470023800
0470023800
0438043800
0438043800
0438043800
041C083800
041C083800
041C083800
040E103800
040E103800
040E103800
0407203800
0407203800
0407203800
0403C03800
0403C03800
0401C03800
0E01807C00
FFC083FFC0
ENDCHAR
STARTCHAR char4E
ENCODING 78
SWIDTH 842 0
DWIDTH 32 0
BBX 28 25 2 0
VVECTOR 16 31
SWIDTH1 0 -1000
DWIDTH1 0 -38
BITMAP 
FE003FF0
1F000380
0F800100
0BC00100
09C00100
08E00100
08F00100
08700100
08380100
081C0100
080E0100
080F0100
08070100
08038100
0801C100
0801E100
0800E100
08007100
08003900
08003D00
08001D00
08000F00
08000F00
1C000700
FF800300
ENDCHAR
STARTCHAR char4F
ENCODING 79
SWIDTH 763 0
DWIDTH 29 0
BBX 25 25 2 0
VVECTOR 15 31
SWIDTH1 0 -1000
DWIDTH1 0 -38
BITMAP 
007F0000
0180C000
07007000
0E003800
1C001C00
38000E00
38000E00
70000700
78000F00
F0000780
70000700
F0000780
F0000780
F0000780
70000700
F0000780
78000F00
70000700
38000E00
38000E00
1C001C00
0E003800
07007000
0180C000
007F0000
ENDCHAR
STARTCHAR char50
ENCODING 80
SWIDTH 711 0
DWIDTH 27 0
BBX 23 25 2 0
VVECTOR 14 31
SWIDTH1 0 -1000
DWIDTH1 0 -38
BITMAP 
FFFF80
0F0060
070038
07001C
07001C
07000E
07000E
07000E
07001C
07001C
070038
070060
07FF80
070000
070000
070000
070000
070000
070000
070000
070000
070000
070000
0F8000
FFF800
ENDCHAR
STARTCHAR char51
ENCODING 81
SWIDTH 763 0
DWIDTH 29 0
BBX 25 28 2 -3
VVECTOR 15 31
SWIDTH1 0 -1000
DWIDTH1 0 -38
BITMAP 
007F0000
0180C000
07007000
0E003800
1C001C00
38000E00
38000E00
70000700
78000F00
F0000780
70000700
F0000780
F0000780
F0000780
70000700
F0000780
78000F00
70380700
38440E00
38820E00
1C831C00
0C831800
06833000
0182C000
007D8000
00018100
0000C200
00007C00
ENDCHAR
STARTCHAR char52
ENCODING 82
SWIDTH 763 0
DWIDTH 29 0
BBX 26 25 2 0
VVECTOR 15 31
SWIDTH1 0 -1000
DWIDTH1 0 -38
BITMAP 
FFFF0000
0F00C000
07007000
07003800
07003800
07001C00
07001C00
07001C00
07003800
07003800
07007000
0700C000
06FF0000
0700C000
07006000
07007000
07003000
07003800
07003800
07003800
07003800
07003800
07001800
0F800C40
FFF80380
ENDCHAR
STARTCHAR char53
ENCODING 83
SWIDTH 605 0
DWIDTH 23 0
BBX 19 25 2 0
VVECTOR 12 31
SWIDTH1 0 -1000
DWIDTH1 0 -38
BITMAP 
03F040
1C0C40
3002C0
6001C0
E000C0
E00040
E00040
700040
F00000
7C0000
3FC000
07FC00
007F00
000FC0
0003C0
0000E0
0001E0
8000E0
8000E0
8000E0
C000C0
E000C0
D00180
8C0E00
83F000
ENDCHAR
STARTCHAR char54
ENCODING 84
SWIDTH 711 0
DWIDTH 27 0
BBX 23 25 2 0
VVECTOR 14 31
SWIDTH1 0 -1000
DWIDTH1 0 -38
BITMAP 
FFFFFE
F0381E
E0380E
C03806
803802
803802
803802
003800
003800
003800
003800
003800
003800
003800
003800
003800
003800
003800
003800
003800
003800
003800
003800
007C00
0FFFE0
ENDCHAR
STARTCHAR char55
ENCODING 85
SWIDTH 816 0
DWIDTH 31 0
BBX 27 25 2 0
VVECTOR 16 31
SWIDTH1 0 -1000
DWIDTH1 0 -38
BITMAP 
FFE03FE0
1F000700
0E000200
0E000200
0E000200
0E000200
0E000200
0E000200
0E000200
0E000200
0E000200
0E000200
0E000200
0E000200
0E000200
0E000200
0E000200
0E000200
0E000200
06000200
07000400
03000400
01800800
00E03000
003FC000
ENDCHAR
STARTCHAR char56
ENCODING 86
SWIDTH 737 0
DWIDTH 28 0
BBX 26 25 1 0
VVECTOR 14 31
SWIDTH1 0 -1000
DWIDTH1 0 -38
BITMAP 
FFE07FC0
1F000E00
0E000400
07000800
07000800
07000800
03801000
03801000
03801000
01C02000
01C02000
01C02000
00E04000
00E04000
00E04000
00708000
00708000
00708000
00390000
00390000
003D0000
001E0000
001E0000
000C0000
000C0000
ENDCHAR
STARTCHAR char57
ENCODING 87
SWIDTH 1105 0
DWIDTH 42 0
BBX 40 25 1 0
VVECTOR 21 31
SWIDTH1 0 -1000
DWIDTH1 0 -38
BITMAP 
FFF0FFC1FF
0F801E0038
07000C0010
03800E0020
03800E0020
03800E0020
01C01F0040
01C01F0040
01C0170040
00E0238080
00E0238080
00E0238080
007041C100
007041C100
007041C100
003880E200
003880E200
003880E200
001D007400
001D007400
001F007C00
000F007C00
000E003800
0006003800
0004001000
ENDCHAR
STARTCHAR char58
ENCODING 88
SWIDTH 763 0
DWIDTH 29 0
BBX 27 25 1 0
VVECTOR 15 31
SWIDTH1 0 -1000
DWIDTH1 0 -38
BITMAP 
FFE07FC0
0F000C00
07800800
03801000
03C02000
01E02000
00E04000
00F08000
00788000
00390000
003A0000
001E0000
001E0000
001F0000
00270000
00278000
0043C000
0083C000
0081E000
0100F000
0200F000
02007800
04003C00
0C003E00
FF83FFE0
ENDCHAR
STARTCHAR char59
ENCODING 89
SWIDTH 737 0
DWIDTH 28 0
BBX 26 25 1 0
VVECTOR 14 31
SWIDTH1 0 -1000
DWIDTH1 0 -38
BITMAP 
FFE0FFC0
0E000C00
07000800
07000800
03801000
03801000
01C02000
01C02000
00E04000
00F04000
00708000
00388000
00390000
001D0000
000E0000
000E0000
000E0000
000E0000
000E0000
000E0000
000E0000
000E0000
000E0000
001F0000
03FFF800
ENDCHAR
STARTCHAR char5A
ENCODING 90
SWIDTH 632 0
DWIDTH 24 0
BBX 21 25 1 0
VVECTOR 12 31
SWIDTH1 0 -1000
DWIDTH1 0 -38
BITMAP 
7FFFF8
780038
700070
6000E0
4000C0
4001C0
400380
000700
000E00
001E00
001C00
003800
007000
00E000
01C000
01C000
038000
070000
0E0008
1C0008
1C0008
380018
700038
E00078
FFFFF8
ENDCHAR
STARTCHAR char5B
ENCODING 91
SWIDTH 395 0
DWIDTH 15 0
BBX 9 33 3 -5
VVECTOR 8 31
SWIDTH1 0 -1000
DWIDTH1 0 -38
BITMAP 
FF80
F000
E000
E000
E000
E000
E000
E000
E000
E000
E000
E000
E000
E000
E000
E000
E000
E000
E000
E000
E000
E000
E000
E000
E000
E000
E000
E000
E000
E000
E000
F000
FF80
ENDCHAR
STARTCHAR char5C
ENCODING 92
SWIDTH 395 0
DWIDTH 15 0
BBX 11 25 2 0
VVECTOR 8 31
SWIDTH1 0 -1000
DWIDTH1 0 -38
BITMAP 
8000
8000
4000
4000
2000
2000
2000
1000
1000
0800
0800
0400
0400
0400
0200
0200
0100
0100
0080
0080
0080
0040
0040
0020
0020
ENDCHAR
STARTCHAR char5D
ENCODING 93
SWIDTH 395 0
DWIDTH 15 0
BBX 9 33 3 -5
VVECTOR 8 31
SWIDTH1 0 -1000
DWIDTH1 0 -38
BITMAP 
FF80
0780
0380
0380
0380
0380
0380
0380
0380
0380
0380
0380
0380
0380
0380
0380
0380
0380
0380
0380
0380
0380
0380
0380
0380
0380
0380
0380
0380
0380
0380
0780
FF80
ENDCHAR
STARTCHAR char5E
ENCODING 94
SWIDTH 579 0
DWIDTH 22 0
BBX 11 6 5 24
VVECTOR 11 31
SWIDTH1 0 -1000
DWIDTH1 0 -38
BITMAP 
0400
0E00
1B00
3180
60C0
C060
ENDCHAR
STARTCHAR char5F
ENCODING 95
SWIDTH 842 0
DWIDTH 32 0
BBX 32 1 0 -7
VVECTOR 16 31
SWIDTH1 0 -1000
DWIDTH1 0 -38
BITMAP 
FFFFFFFF
ENDCHAR
STARTCHAR char60
ENCODING 96
SWIDTH 579 0
DWIDTH 22 0
BBX 8 6 7 25
VVECTOR 11 31
SWIDTH1 0 -1000
DWIDTH1 0 -38
BITMAP 
E0
F0
78
1C
06
01
ENDCHAR
STARTCHAR char61
ENCODING 97
SWIDTH 605 0
DWIDTH 23 0
BBX 20 18 2 0
VVECTOR 12 31
SWIDTH1 0 -1000
DWIDTH1 0 -38
BITMAP 
07E000
181800
300C00
780E00
300E00
000E00
000E00
007600
038E00
0E0E00
380E00
700E00
E00E00
E00E00
E00E00
701610
386320
0780C0
ENDCHAR
STARTCHAR char62
ENCODING 98
SWIDTH 632 0
DWIDTH 24 0
BBX 20 25 2 0
VVECTOR 12 31
SWIDTH1 0 -1000
DWIDTH1 0 -38
BITMAP 
FE0000
1E0000
0E0000
0E0000
0E0000
0E0000
0E0000
0E3C00
0EC380
0D01C0
0E00E0
0E00E0
0E0070
0E0070
0E0070
0E0070
0E0070
0E0070
0E0070
0E0070
0E00E0
0E00E0
0D01C0
0CC380
083C00
ENDCHAR
STARTCHAR char63
ENCODING 99
SWIDTH 553 0
DWIDTH 21 0
BBX 17 18 2 0
VVECTOR 11 31
SWIDTH1 0 -1000
DWIDTH1 0 -38
BITMAP 
01F800
060600
1C0100
380180
700780
700700
E00000
E00000
E00000
E00000
E00000
E00000
700000
700000
380080
1C0100
060600
01F800
ENDCHAR
STARTCHAR char64
ENCODING 100
SWIDTH 658 0
DWIDTH 25 0
BBX 21 25 2 0
VVECTOR 13 31
SWIDTH1 0 -1000
DWIDTH1 0 -38
BITMAP 
003F80
000780
000380
000380
000380
000380
000380
03C380
1C3380
380B80
700580
700780
E00380
E00380
E00380
E00380
E00380
E00380
E00380
E00380
700780
700580
380980
1C31C0
03C1F8
ENDCHAR
STARTCHAR char65
ENCODING 101
SWIDTH 605 0
DWIDTH 23 0
BBX 19 18 2 0
VVECTOR 12 31
SWIDTH1 0 -1000
DWIDTH1 0 -38
BITMAP 
01F000
060C00
1C0700
380380
7001C0
7001C0
F001E0
F001E0
FFFFE0
E00000
E00000
E00000
700000
700000
380040
1C0080
060300
01FC00
ENDCHAR
STARTCHAR char66
ENCODING 102
SWIDTH 500 0
DWIDTH 19 0
BBX 17 25 1 0
VVECTOR 10 31
SWIDTH1 0 -1000
DWIDTH1 0 -38
BITMAP 
007C00
018300
030780
030300
070000
070000
070000
070000
7FF800
070000
070000
070000
070000
070000
070000
070000
070000
070000
070000
070000
070000
070000
070000
0F8000
FFF800
ENDCHAR
STARTCHAR char67
ENCODING 103
SWIDTH 605 0
DWIDTH 23 0
BBX 20 30 1 -7
VVECTOR 11 31
SWIDTH1 0 -1000
DWIDTH1 0 -38
BITMAP 
0000E0
000130
000260
000200
000200
01F900
0E0780
1C0380
3801C0
3801C0
3801C0
3801C0
1C0380
0E0700
03FC00
0C0000
300000
600000
700000
3FFC00
0FFF80
3003E0
4000F0
C00070
C00070
C00070
C00070
6000E0
180380
07FC00
ENDCHAR
STARTCHAR char68
ENCODING 104
SWIDTH 737 0
DWIDTH 28 0
BBX 24 25 2 0
VVECTOR 14 31
SWIDTH1 0 -1000
DWIDTH1 0 -38
BITMAP 
FE0000
1E0000
0E0000
0E0000
0E0000
0E0000
0E0000
0E0F00
0E30C0
0E4060
0E8070
0D0070
0E0070
0E0070
0E0070
0E0070
0E0070
0E0070
0E0070
0E0070
0E0070
0E0070
0E0070
1F0078
FFE07F
ENDCHAR
STARTCHAR char69
ENCODING 105
SWIDTH 395 0
DWIDTH 15 0
BBX 11 25 2 0
VVECTOR 8 31
SWIDTH1 0 -1000
DWIDTH1 0 -38
BITMAP 
0E00
0E00
0E00
0000
0000
0000
0000
FE00
1E00
0E00
0E00
0E00
0E00
0E00
0E00
0E00
0E00
0E00
0E00
0E00
0E00
0E00
0E00
1F00
FFE0
ENDCHAR
STARTCHAR char6A
ENCODING 106
SWIDTH 368 0
DWIDTH 14 0
BBX 11 32 1 -7
VVECTOR 7 31
SWIDTH1 0 -1000
DWIDTH1 0 -38
BITMAP 
00E0
00E0
00E0
0000
0000
0000
0000
1FE0
01E0
00E0
00E0
00E0
00E0
00E0
00E0
00E0
00E0
00E0
00E0
00E0
00E0
00E0
00E0
00E0
00E0
00E0
00E0
E0E0
A0E0
C0C0
4180
3E00
ENDCHAR
STARTCHAR char6B
ENCODING 107
SWIDTH 684 0
DWIDTH 26 0
BBX 23 25 2 0
VVECTOR 14 31
SWIDTH1 0 -1000
DWIDTH1 0 -38
BITMAP 
FE0000
1E0000
0E0000
0E0000
0E0000
0E0000
0E0000
0E07F8
0E01C0
0E0100
0E0200
0E0400
0E0800
0E1000
0E2000
0E7000
0EF800
0F3C00
0E1E00
0E0F00
0E0780
0E03C0
0E01E0
1F00F0
FFE07E
ENDCHAR
STARTCHAR char6C
ENCODING 108
SWIDTH 395 0
DWIDTH 15 0
BBX 11 25 2 0
VVECTOR 8 31
SWIDTH1 0 -1000
DWIDTH1 0 -38
BITMAP 
FE00
1E00
0E00
0E00
0E00
0E00
0E00
0E00
0E00
0E00
0E00
0E00
0E00
0E00
0E00
0E00
0E00
0E00
0E00
0E00
0E00
0E00
0E00
1F00
FFE0
ENDCHAR
STARTCHAR char6D
ENCODING 109
SWIDTH 1026 0
DWIDTH 39 0
BBX 35 18 2 0
VVECTOR 20 31
SWIDTH1 0 -1000
DWIDTH1 0 -38
BITMAP 
FC1E01E000
1C61861800
0C80C80C00
0D00B00E00
0A00E00E00
0E00E00E00
0E00E00E00
0E00E00E00
0E00E00E00
0E00E00E00
0E00E00E00
0E00E00E00
0E00E00E00
0E00E00E00
0E00E00E00
0E00E00E00
1F00F00F00
FFE0FC0FE0
ENDCHAR
STARTCHAR char6E
ENCODING 110
SWIDTH 737 0
DWIDTH 28 0
BBX 24 18 2 0
VVECTOR 14 31
SWIDTH1 0 -1000
DWIDTH1 0 -38
BITMAP 
FC0F00
1C30C0
0C4060
0C8070
0D0060
0A0070
0E0070
0E0070
0E0070
0E0070
0E0070
0E0070
0E0070
0E0070
0E0070
0E0070
1F0078
FFE07F
ENDCHAR
STARTCHAR char6F
ENCODING 111
SWIDTH 605 0
DWIDTH 23 0
BBX 19 18 2 0
VVECTOR 12 31
SWIDTH1 0 -1000
DWIDTH1 0 -38
BITMAP 
01F000
060C00
1C0700
380380
7001C0
7001C0
E000E0
E000E0
E000E0
E000E0
E000E0
E000E0
7001C0
7001C0
380380
1C0700
060C00
01F000
ENDCHAR
STARTCHAR char70
ENCODING 112
SWIDTH 658 0
DWIDTH 25 0
BBX 21 25 2 -7
VVECTOR 13 31
SWIDTH1 0 -1000
DWIDTH1 0 -38
BITMAP 
FC1E00
1C61C0
0C80E0
0D0070
0A0070
0E0038
0E0038
0E0038
0E0038
0E0038
0E0038
0E0038
0E0038
0E0070
0D0070
0E80E0
0E61C0
0E1E00
0E0000
0E0000
0E0000
0E0000
0E0000
1F0000
FFE000
ENDCHAR
STARTCHAR char71
ENCODING 113
SWIDTH 632 0
DWIDTH 24 0
BBX 21 25 2 -7
VVECTOR 13 31
SWIDTH1 0 -1000
DWIDTH1 0 -38
BITMAP 
03C080
1C3080
380980
700580
700380
E00380
E00380
E00380
E00380
E00380
E00380
E00380
E00380
700380
700580
380B80
1C3380
07C380
000380
000380
000380
000380
000380
0007C0
003FF8
ENDCHAR
STARTCHAR char72
ENCODING 114
SWIDTH 526 0
DWIDTH 20 0
BBX 17 18 2 0
VVECTOR 11 31
SWIDTH1 0 -1000
DWIDTH1 0 -38
BITMAP 
FC1E00
1C6300
0C8780
0D0300
0E0000
0E0000
0E0000
0E0000
0E0000
0E0000
0E0000
0E0000
0E0000
0E0000
0E0000
0E0000
1F0000
FFF000
ENDCHAR
STARTCHAR char73
ENCODING 115
SWIDTH 474 0
DWIDTH 18 0
BBX 14 18 2 0
VVECTOR 9 31
SWIDTH1 0 -1000
DWIDTH1 0 -38
BITMAP 
0F88
3068
6018
C008
C008
E000
F800
7E00
1FC0
07F0
00F8
003C
001C
800C
800C
C008
B030
8FC0
ENDCHAR
STARTCHAR char74
ENCODING 116
SWIDTH 421 0
DWIDTH 16 0
BBX 14 23 1 0
VVECTOR 8 31
SWIDTH1 0 -1000
DWIDTH1 0 -38
BITMAP 
0200
0200
0600
0600
0E00
FFF8
0E00
0E00
0E00
0E00
0E00
0E00
0E00
0E00
0E00
0E00
0E00
0E00
0E00
0E04
0604
0308
00F0
ENDCHAR
STARTCHAR char75
ENCODING 117
SWIDTH 711 0
DWIDTH 27 0
BBX 23 18 2 0
VVECTOR 14 31
SWIDTH1 0 -1000
DWIDTH1 0 -38
BITMAP 
FE0FE0
1E01E0
0E00E0
0E00E0
0E00E0
0E00E0
0E00E0
0E00E0
0E00E0
0E00E0
0E00E0
0E00E0
0E00E0
0E0160
0E02E0
0604E0
0318F0
00E0FE
ENDCHAR
STARTCHAR char76
ENCODING 118
SWIDTH 711 0
DWIDTH 27 0
BBX 25 18 1 0
VVECTOR 14 31
SWIDTH1 0 -1000
DWIDTH1 0 -38
BITMAP 
FFC07F80
1E000C00
0E000800
07001000
07001000
03802000
03802000
01C04000
01C04000
00E08000
00E08000
00710000
00710000
003A0000
003A0000
001C0000
001C0000
00080000
ENDCHAR
STARTCHAR char77
ENCODING 119
SWIDTH 974 0
DWIDTH 37 0
BBX 35 18 1 0
VVECTOR 19 31
SWIDTH1 0 -1000
DWIDTH1 0 -38
BITMAP 
FF0FF81FE0
1C01C00300
0E01C00200
0E00E00400
0700E00400
0700700800
0380700800
0380B01000
01C0B81000
01C1382000
00E11C2000
00E21C4000
00720E4000
00740E8000
0034068000
0038070000
0018030000
0018030000
ENDCHAR
STARTCHAR char78
ENCODING 120
SWIDTH 605 0
DWIDTH 23 0
BBX 21 18 1 0
VVECTOR 12 31
SWIDTH1 0 -1000
DWIDTH1 0 -38
BITMAP 
FF83F8
1C0040
0E0080
060100
030200
038400
01C800
00D000
007000
007000
00B800
011C00
020C00
040600
040700
080380
1001C0
FF0FF8
ENDCHAR
STARTCHAR char79
ENCODING 121
SWIDTH 658 0
DWIDTH 25 0
BBX 23 25 1 -7
VVECTOR 13 31
SWIDTH1 0 -1000
DWIDTH1 0 -38
BITMAP 
FF81FE
1C0030
0E0020
0E0020
070040
070040
038080
038080
01C080
01C100
00E100
00E200
007200
007400
003400
003C00
001800
001800
001000
001000
702000
F02000
804000
418000
3E0000
ENDCHAR
STARTCHAR char7A
ENCODING 122
SWIDTH 500 0
DWIDTH 19 0
BBX 16 18 1 0
VVECTOR 9 31
SWIDTH1 0 -1000
DWIDTH1 0 -38
BITMAP 
7FFF
7007
600E
401C
4038
4070
0060
00E0
01C0
0380
0700
0E00
0C01
1C01
3801
7003
E007
FFFF
ENDCHAR
STARTCHAR char7B
ENCODING 123
SWIDTH 395 0
DWIDTH 15 0
BBX 12 33 1 -5
VVECTOR 7 31
SWIDTH1 0 -1000
DWIDTH1 0 -38
BITMAP 
0070
0180
0300
0600
0E00
0E00
0E00
0E00
0E00
0E00
0E00
0E00
0E00
0E00
0C00
1800
F000
1800
0C00
0E00
0E00
0E00
0E00
0E00
0E00
0E00
0E00
0E00
0E00
0600
0300
0180
0070
ENDCHAR
STARTCHAR char7C
ENCODING 124
SWIDTH 263 0
DWIDTH 10 0
BBX 2 29 4 -2
VVECTOR 5 31
SWIDTH1 0 -1000
DWIDTH1 0 -38
BITMAP 
C0
C0
C0
C0
C0
C0
C0
C0
C0
C0
C0
C0
C0
C0
C0
C0
C0
C0
C0
C0
C0
C0
C0
C0
C0
C0
C0
C0
C0
ENDCHAR
STARTCHAR char7D
ENCODING 125
SWIDTH 395 0
DWIDTH 15 0
BBX 12 33 2 -5
VVECTOR 8 31
SWIDTH1 0 -1000
DWIDTH1 0 -38
BITMAP 
E000
1800
0C00
0600
0700
0700
0700
0700
0700
0700
0700
0700
0700
0700
0300
0180
00F0
0180
0300
0700
0700
0700
0700
0700
0700
0700
0700
0700
0700
0600
0C00
1800
E000
ENDCHAR
STARTCHAR char7E
ENCODING 126
SWIDTH 579 0
DWIDTH 22 0
BBX 16 3 3 28
VVECTOR 11 31
SWIDTH1 0 -1000
DWIDTH1 0 -38
BITMAP 
1E03
6186
C078
ENDCHAR
STARTCHAR char7F
ENCODING 127
SWIDTH 553 0
DWIDTH 21 0
BBX 0 0 1 -7
VVECTOR 1 -7
SWIDTH1 0 0
DWIDTH1 0 0
BITMAP 
ENDCHAR
STARTCHAR char80
ENCODING 128
SWIDTH 737 0
DWIDTH 28 0
BBX 26 31 1 0
VVECTOR 14 31
SWIDTH1 0 -1000
DWIDTH1 0 -38
BITMAP 
00E1C000
00E1C000
00E1C000
00000000
00000000
000C0000
000C0000
001E0000
001E0000
002F0000
00270000
00270000
00438000
00438000
00438000
0081C000
0081C000
0081C000
0100E000
0100E000
0100E000
03FF7000
02007000
02007000
04003800
04003800
04003800
08001C00
08001C00
1C003E00
FF81FFC0
ENDCHAR
STARTCHAR char81
ENCODING 129
SWIDTH 737 0
DWIDTH 28 0
BBX 26 31 1 0
VVECTOR 14 31
SWIDTH1 0 -1000
DWIDTH1 0 -38
BITMAP 
001E0000
00210000
00408000
00408000
00210000
001E0000
000C0000
001E0000
001E0000
002F0000
00270000
00270000
00438000
00438000
00438000
0081C000
0081C000
0081C000
0100E000
0100E000
0100E000
03FF7000
02007000
02007000
04003800
04003800
04003800
08001C00
08001C00
1C003E00
FF81FFC0
ENDCHAR
STARTCHAR char82
ENCODING 130
SWIDTH 632 0
DWIDTH 24 0
BBX 21 32 2 -7
VVECTOR 13 31
SWIDTH1 0 -1000
DWIDTH1 0 -38
BITMAP 
007C10
018310
0600D0
0C0070
180030
380010
380010
700010
780000
F00000
700000
F00000
F00000
F00000
700000
F00000
780000
700008
380008
380010
180010
0C0020
060040
018180
007E00
002000
004000
00FE00
000100
000100
000100
00FE00
ENDCHAR
STARTCHAR char83
ENCODING 131
SWIDTH 684 0
DWIDTH 26 0
BBX 24 31 1 0
VVECTOR 13 31
SWIDTH1 0 -1000
DWIDTH1 0 -38
BITMAP 
0000E0
0001C0
000300
000400
000000
000000
FFFFFE
0F801E
07000E
070006
070002
070002
070002
070000
070080
070080
070180
070180
07FF80
070180
070180
070080
070080
070000
070001
070001
070001
070003
070007
0F800F
FFFFFF
ENDCHAR
STARTCHAR char84
ENCODING 132
SWIDTH 842 0
DWIDTH 32 0
BBX 28 31 2 0
VVECTOR 16 31
SWIDTH1 0 -1000
DWIDTH1 0 -38
BITMAP 
00F80600
03060C00
0601F000
00000000
00000000
00000000
FE003FF0
1F000380
0F800100
0BC00100
09C00100
08E00100
08F00100
08700100
08380100
081C0100
080E0100
080F0100
08070100
08038100
0801C100
0801E100
0800E100
08007100
08003900
08003D00
08001D00
08000F00
08000F00
1C000700
FF800300
ENDCHAR
STARTCHAR char85
ENCODING 133
SWIDTH 763 0
DWIDTH 29 0
BBX 25 31 2 0
VVECTOR 15 31
SWIDTH1 0 -1000
DWIDTH1 0 -38
BITMAP 
01C1C000
01C1C000
01C1C000
00000000
00000000
00000000
007F0000
0180C000
07007000
0E003800
1C001C00
38000E00
38000E00
70000700
78000F00
F0000780
70000700
F0000780
F0000780
F0000780
70000700
F0000780
78000F00
70000700
38000E00
38000E00
1C001C00
0E003800
07007000
0180C000
007F0000
ENDCHAR
STARTCHAR char86
ENCODING 134
SWIDTH 816 0
DWIDTH 31 0
BBX 27 31 2 0
VVECTOR 16 31
SWIDTH1 0 -1000
DWIDTH1 0 -38
BITMAP 
00E07000
00E07000
00E07000
00000000
00000000
00000000
FFE03FE0
1F000700
0E000200
0E000200
0E000200
0E000200
0E000200
0E000200
0E000200
0E000200
0E000200
0E000200
0E000200
0E000200
0E000200
0E000200
0E000200
0E000200
0E000200
06000200
07000400
03000400
01800800
00E03000
003FC000
ENDCHAR
STARTCHAR char87
ENCODING 135
SWIDTH 605 0
DWIDTH 23 0
BBX 20 28 2 0
VVECTOR 12 31
SWIDTH1 0 -1000
DWIDTH1 0 -38
BITMAP 
000700
000F00
001E00
003800
006000
008000
000000
000000
000000
000000
07E000
181800
300C00
780E00
300E00
000E00
000E00
007600
038E00
0E0E00
380E00
700E00
E00E00
E00E00
E00E00
701610
386320
0780C0
ENDCHAR
STARTCHAR char88
ENCODING 136
SWIDTH 605 0
DWIDTH 23 0
BBX 20 28 2 0
VVECTOR 12 31
SWIDTH1 0 -1000
DWIDTH1 0 -38
BITMAP 
1C0000
1E0000
0F0000
038000
00C000
002000
000000
000000
000000
000000
07E000
181800
300C00
780E00
300E00
000E00
000E00
007600
038E00
0E0E00
380E00
700E00
E00E00
E00E00
E00E00
701610
386320
0780C0
ENDCHAR
STARTCHAR char89
ENCODING 137
SWIDTH 605 0
DWIDTH 23 0
BBX 20 28 2 0
VVECTOR 12 31
SWIDTH1 0 -1000
DWIDTH1 0 -38
BITMAP 
008000
01C000
036000
063000
0C1800
180C00
000000
000000
000000
000000
07E000
181800
300C00
780E00
300E00
000E00
000E00
007600
038E00
0E0E00
380E00
700E00
E00E00
E00E00
E00E00
701610
386320
0780C0
ENDCHAR
STARTCHAR char8A
ENCODING 138
SWIDTH 605 0
DWIDTH 23 0
BBX 20 25 2 0
VVECTOR 12 31
SWIDTH1 0 -1000
DWIDTH1 0 -38
BITMAP 
1C1C00
1C1C00
1C1C00
000000
000000
000000
000000
07E000
181800
300C00
780E00
300E00
000E00
000E00
007600
038E00
0E0E00
380E00
700E00
E00E00
E00E00
E00E00
701610
386320
0780C0
ENDCHAR
STARTCHAR char8B
ENCODING 139
SWIDTH 605 0
DWIDTH 23 0
BBX 20 25 2 0
VVECTOR 12 31
SWIDTH1 0 -1000
DWIDTH1 0 -38
BITMAP 
0F0180
30C300
603C00
000000
000000
000000
000000
07E000
181800
300C00
780E00
300E00
000E00
000E00
007600
038E00
0E0E00
380E00
700E00
E00E00
E00E00
E00E00
701610
386320
0780C0
ENDCHAR
STARTCHAR char8C
ENCODING 140
SWIDTH 605 0
DWIDTH 23 0
BBX 20 28 2 0
VVECTOR 12 31
SWIDTH1 0 -1000
DWIDTH1 0 -38
BITMAP 
03E000
041000
041000
041000
041000
03E000
000000
000000
000000
000000
07E000
181800
300C00
780E00
300E00
000E00
000E00
007600
038E00
0E0E00
380E00
700E00
E00E00
E00E00
E00E00
701610
386320
0780C0
ENDCHAR
STARTCHAR char8D
ENCODING 141
SWIDTH 526 0
DWIDTH 20 0
BBX 17 25 2 -7
VVECTOR 11 31
SWIDTH1 0 -1000
DWIDTH1 0 -38
BITMAP 
01F800
060600
1C0100
380180
700780
700700
E00000
E00000
E00000
E00000
E00000
E00000
700000
700000
380080
1C0100
060600
01F800
008000
010000
03F800
000C00
000400
000C00
03F800
ENDCHAR
STARTCHAR char8E
ENCODING 142
SWIDTH 605 0
DWIDTH 23 0
BBX 19 28 2 0
VVECTOR 12 31
SWIDTH1 0 -1000
DWIDTH1 0 -38
BITMAP 
000380
000780
000F00
001C00
003000
004000
000000
000000
000000
000000
01F000
060C00
1C0700
380380
7001C0
7001C0
F001E0
F001E0
FFFFE0
E00000
E00000
E00000
700000
700000
380040
1C0080
060300
01FC00
ENDCHAR
STARTCHAR char8F
ENCODING 143
SWIDTH 605 0
DWIDTH 23 0
BBX 19 28 2 0
VVECTOR 12 31
SWIDTH1 0 -1000
DWIDTH1 0 -38
BITMAP 
070000
078000
03C000
00E000
003000
000800
000000
000000
000000
000000
01F000
060C00
1C0700
380380
7001C0
7001C0
F001E0
F001E0
FFFFE0
E00000
E00000
E00000
700000
700000
380040
1C0080
060300
01FC00
ENDCHAR
STARTCHAR char90
ENCODING 144
SWIDTH 605 0
DWIDTH 23 0
BBX 19 28 2 0
VVECTOR 12 31
SWIDTH1 0 -1000
DWIDTH1 0 -38
BITMAP 
004000
00E000
01B000
031800
060C00
0C0600
000000
000000
000000
000000
01F000
060C00
1C0700
380380
7001C0
7001C0
F001E0
F001E0
FFFFE0
E00000
E00000
E00000
700000
700000
380040
1C0080
060300
01FC00
ENDCHAR
STARTCHAR char91
ENCODING 145
SWIDTH 605 0
DWIDTH 23 0
BBX 19 24 2 0
VVECTOR 12 31
SWIDTH1 0 -1000
DWIDTH1 0 -38
BITMAP 
0E0E00
0E0E00
0E0E00
000000
000000
000000
01F000
060C00
1C0700
380380
7001C0
7001C0
F001E0
F001E0
FFFFE0
E00000
E00000
E00000
700000
700000
380040
1C0080
060300
01FC00
ENDCHAR
STARTCHAR char92
ENCODING 146
SWIDTH 395 0
DWIDTH 15 0
BBX 11 28 2 0
VVECTOR 8 31
SWIDTH1 0 -1000
DWIDTH1 0 -38
BITMAP 
01C0
03C0
0780
0E00
1800
2000
0000
0000
0000
0000
FE00
1E00
0E00
0E00
0E00
0E00
0E00
0E00
0E00
0E00
0E00
0E00
0E00
0E00
0E00
0E00
1F00
FFE0
ENDCHAR
STARTCHAR char93
ENCODING 147
SWIDTH 395 0
DWIDTH 15 0
BBX 11 28 2 0
VVECTOR 8 31
SWIDTH1 0 -1000
DWIDTH1 0 -38
BITMAP 
E000
F000
7800
1C00
0600
0100
0000
0000
0000
0000
FE00
1E00
0E00
0E00
0E00
0E00
0E00
0E00
0E00
0E00
0E00
0E00
0E00
0E00
0E00
0E00
1F00
FFE0
ENDCHAR
STARTCHAR char94
ENCODING 148
SWIDTH 395 0
DWIDTH 15 0
BBX 12 28 1 0
VVECTOR 7 31
SWIDTH1 0 -1000
DWIDTH1 0 -38
BITMAP 
0400
0E00
1B00
3180
60C0
C060
0000
0000
0000
0000
7F00
0F00
0700
0700
0700
0700
0700
0700
0700
0700
0700
0700
0700
0700
0700
0700
0F80
7FF0
ENDCHAR
STARTCHAR char95
ENCODING 149
SWIDTH 395 0
DWIDTH 15 0
BBX 11 26 2 0
VVECTOR 8 31
SWIDTH1 0 -1000
DWIDTH1 0 -38
BITMAP 
E1C0
E1C0
E1C0
0000
0000
0000
0000
0000
FE00
1E00
0E00
0E00
0E00
0E00
0E00
0E00
0E00
0E00
0E00
0E00
0E00
0E00
0E00
0E00
1F00
FFE0
ENDCHAR
STARTCHAR char96
ENCODING 150
SWIDTH 737 0
DWIDTH 28 0
BBX 24 25 2 0
VVECTOR 14 31
SWIDTH1 0 -1000
DWIDTH1 0 -38
BITMAP 
01E030
061860
0C0780
000000
000000
000000
000000
FC0F00
1C30C0
0C4060
0C8070
0D0060
0A0070
0E0070
0E0070
0E0070
0E0070
0E0070
0E0070
0E0070
0E0070
0E0070
0E0070
1F0078
FFE07F
ENDCHAR
STARTCHAR char97
ENCODING 151
SWIDTH 605 0
DWIDTH 23 0
BBX 19 28 2 0
VVECTOR 12 31
SWIDTH1 0 -1000
DWIDTH1 0 -38
BITMAP 
000700
000F00
001E00
003800
006000
008000
000000
000000
000000
000000
01F000
060C00
1C0700
380380
7001C0
7001C0
E000E0
E000E0
E000E0
E000E0
E000E0
E000E0
7001C0
7001C0
380380
1C0700
060C00
01F000
ENDCHAR
STARTCHAR char98
ENCODING 152
SWIDTH 605 0
DWIDTH 23 0
BBX 19 28 2 0
VVECTOR 12 31
SWIDTH1 0 -1000
DWIDTH1 0 -38
BITMAP 
0E0000
0F0000
078000
01C000
006000
001000
000000
000000
000000
000000
01F000
060C00
1C0700
380380
7001C0
7001C0
E000E0
E000E0
E000E0
E000E0
E000E0
E000E0
7001C0
7001C0
380380
1C0300
060400
01F000
ENDCHAR
STARTCHAR char99
ENCODING 153
SWIDTH 605 0
DWIDTH 23 0
BBX 19 28 2 0
VVECTOR 12 31
SWIDTH1 0 -1000
DWIDTH1 0 -38
BITMAP 
004000
00E000
01B000
031800
060C00
0C0600
000000
000000
000000
000000
01F000
060C00
1C0700
380380
7001C0
7001C0
E000E0
E000E0
E000E0
E000E0
E000E0
E000E0
7001C0
7001C0
380380
1C0700
060C00
01F000
ENDCHAR
STARTCHAR char9A
ENCODING 154
SWIDTH 605 0
DWIDTH 23 0
BBX 19 25 2 0
VVECTOR 12 31
SWIDTH1 0 -1000
DWIDTH1 0 -38
BITMAP 
0E0E00
0E0E00
0E0E00
000000
000000
000000
000000
01F000
060C00
1C0700
380380
7001C0
7001C0
E000E0
E000E0
E000E0
E000E0
E000E0
E000E0
7001C0
7001C0
380380
1C0700
060C00
01F000
ENDCHAR
STARTCHAR char9B
ENCODING 155
SWIDTH 605 0
DWIDTH 23 0
BBX 19 25 2 0
VVECTOR 12 31
SWIDTH1 0 -1000
DWIDTH1 0 -38
BITMAP 
0780C0
186180
301E00
000000
000000
000000
000000
01F000
060C00
1C0700
380380
7001C0
7001C0
E000E0
E000E0
E000E0
E000E0
E000E0
E000E0
7001C0
3001C0
380380
1C0700
060C00
01F000
ENDCHAR
STARTCHAR char9C
ENCODING 156
SWIDTH 711 0
DWIDTH 27 0
BBX 23 28 2 0
VVECTOR 14 31
SWIDTH1 0 -1000
DWIDTH1 0 -38
BITMAP 
000380
000780
000F00
001C00
003000
004000
000000
000000
000000
000000
FE0FE0
1E01E0
0E00E0
0E00E0
0E00E0
0E00E0
0E00E0
0E00E0
0E00E0
0E00E0
0E00E0
0E00E0
0E00E0
0E01E0
0E02E0
0604E0
0318F0
00E0FE
ENDCHAR
STARTCHAR char9D
ENCODING 157
SWIDTH 711 0
DWIDTH 27 0
BBX 23 28 2 0
VVECTOR 14 31
SWIDTH1 0 -1000
DWIDTH1 0 -38
BITMAP 
070000
078000
03C000
00E000
003000
000800
000000
000000
000000
000000
FE0FE0
1E01E0
0E00E0
0E00E0
0E00E0
0E00E0
0E00E0
0E00E0
0E00E0
0E00E0
0E00E0
0E00E0
0E00E0
0E0160
0E02E0
0604E0
0318F0
00E0FE
ENDCHAR
STARTCHAR char9E
ENCODING 158
SWIDTH 711 0
DWIDTH 27 0
BBX 23 28 2 0
VVECTOR 14 31
SWIDTH1 0 -1000
DWIDTH1 0 -38
BITMAP 
002000
007000
00D800
018C00
030600
060300
000000
000000
000000
000000
FE0FE0
1E01E0
0E00E0
0E00E0
0E00E0
0E00E0
0E00E0
0E00E0
0E00E0
0E00E0
0E00E0
0E00E0
0E00E0
0E0160
0E02E0
0604E0
0318F0
00E0FE
ENDCHAR
STARTCHAR char9F
ENCODING 159
SWIDTH 711 0
DWIDTH 27 0
BBX 23 25 2 0
VVECTOR 14 31
SWIDTH1 0 -1000
DWIDTH1 0 -38
BITMAP 
070700
070700
070700
000000
000000
000000
000000
FE0FE0
1E01E0
0E00E0
0E00E0
0E00E0
0E00E0
0E00E0
0E00E0
0E00E0
0E00E0
0E00E0
0E00E0
0E00E0
0E01E0
0E02E0
0604E0
0318F0
00E0FE
ENDCHAR
STARTCHAR charA0
ENCODING 160
SWIDTH 579 0
DWIDTH 22 0
BBX 17 28 2 -2
VVECTOR 11 31
SWIDTH1 0 -1000
DWIDTH1 0 -38
BITMAP 
008000
01C000
01C000
01C000
01C000
01C000
81C080
81C080
C1C180
FFFF80
C1C180
81C080
81C080
01C000
01C000
01C000
01C000
01C000
01C000
01C000
01C000
01C000
01C000
01C000
01C000
008000
008000
008000
ENDCHAR
STARTCHAR charA1
ENCODING 161
SWIDTH 395 0
DWIDTH 15 0
BBX 11 10 2 15
VVECTOR 8 31
SWIDTH1 0 -1000
DWIDTH1 0 -38
BITMAP 
1F00
2080
4040
C060
C060
C060
C060
4040
2080
1F00
ENDCHAR
STARTCHAR charA2
ENCODING 162
SWIDTH 579 0
DWIDTH 22 0
BBX 16 21 3 2
VVECTOR 11 31
SWIDTH1 0 -1000
DWIDTH1 0 -38
BITMAP 
0080
0080
0080
0378
1C86
3083
7087
6086
E080
E080
E080
E080
E080
6080
7080
3081
1C86
0378
0080
0080
0080
ENDCHAR
STARTCHAR charA3
ENCODING 163
SWIDTH 579 0
DWIDTH 22 0
BBX 18 25 2 0
VVECTOR 11 31
SWIDTH1 0 -1000
DWIDTH1 0 -38
BITMAP 
03E000
041800
080400
181400
181800
1C0000
1C0000
0E0000
0E0000
070000
018000
7F7F00
018000
00E000
007000
003000
003800
001800
001800
1E0800
618800
C05000
C02040
60D880
1F0700
ENDCHAR
STARTCHAR charA4
ENCODING 164
SWIDTH 579 0
DWIDTH 22 0
BBX 14 25 4 0
VVECTOR 11 31
SWIDTH1 0 -1000
DWIDTH1 0 -38
BITMAP 
07E0
1818
200C
603C
6018
7000
3800
1E00
2F80
43E0
C0F8
C03C
E00C
780C
3E08
0F90
03E0
00F0
0038
001C
300C
780C
6008
3030
0FC0
ENDCHAR
STARTCHAR charA5
ENCODING 165
SWIDTH 395 0
DWIDTH 15 0
BBX 8 7 3 11
VVECTOR 7 31
SWIDTH1 0 -1000
DWIDTH1 0 -38
BITMAP 
7E
FF
FF
FF
FF
FF
7E
ENDCHAR
STARTCHAR charA6
ENCODING 166
SWIDTH 579 0
DWIDTH 22 0
BBX 20 25 1 0
VVECTOR 11 31
SWIDTH1 0 -1000
DWIDTH1 0 -38
BITMAP 
0FC1F0
30C180
70C180
E0C180
60C180
E0C180
E0C180
E0C180
60C180
E0C180
70C180
30C180
0FC180
00C180
00C180
00C180
00C180
00C180
00C180
00C180
00C180
00C180
00C180
00C180
00C180
ENDCHAR
STARTCHAR charA7
ENCODING 167
SWIDTH 684 0
DWIDTH 26 0
BBX 23 25 1 0
VVECTOR 13 31
SWIDTH1 0 -1000
DWIDTH1 0 -38
BITMAP 
003F00
01C0C0
030060
070030
0E0030
0E0030
0E0030
0E0060
0E00C0
0E0300
0E0400
0E0C00
0E0E00
0E0780
0E03E0
0E00F8
0E003C
0E000E
0E0006
0E0002
0E1002
0E1002
0E1804
1E1418
FE13E0
ENDCHAR
STARTCHAR charA8
ENCODING 168
SWIDTH 842 0
DWIDTH 32 0
BBX 24 20 4 3
VVECTOR 16 31
SWIDTH1 0 -1000
DWIDTH1 0 -38
BITMAP 
01FF80
060060
180018
30000C
200004
61FC06
C04303
C04183
C04303
C07C03
C04203
C04103
C04103
C04103
61F0C6
200004
30000C
180018
060060
01FF80
ENDCHAR
STARTCHAR charA9
ENCODING 169
SWIDTH 842 0
DWIDTH 32 0
BBX 24 20 4 3
VVECTOR 16 31
SWIDTH1 0 -1000
DWIDTH1 0 -38
BITMAP 
01FF80
060060
180018
30000C
200004
601E06
C06183
C0C083
C18183
C18003
C18003
C18003
C0C083
C06103
601E06
200004
30000C
180018
060060
01FF80
ENDCHAR
STARTCHAR charAA
ENCODING 170
SWIDTH 579 0
DWIDTH 22 0
BBX 17 6 2 19
VVECTOR 11 31
SWIDTH1 0 -1000
DWIDTH1 0 -38
BITMAP 
FF8080
10C180
10A280
109480
108880
108080
ENDCHAR
STARTCHAR charAB
ENCODING 171
SWIDTH 579 0
DWIDTH 22 0
BBX 8 6 8 25
VVECTOR 12 31
SWIDTH1 0 -1000
DWIDTH1 0 -38
BITMAP 
07
0F
1E
38
60
80
ENDCHAR
STARTCHAR charAC
ENCODING 172
SWIDTH 579 0
DWIDTH 22 0
BBX 10 3 6 28
VVECTOR 11 31
SWIDTH1 0 -1000
DWIDTH1 0 -38
BITMAP 
E1C0
E1C0
E1C0
ENDCHAR
STARTCHAR charAD
ENCODING 173
SWIDTH 842 0
DWIDTH 32 0
BBX 24 17 4 5
VVECTOR 16 31
SWIDTH1 0 -1000
DWIDTH1 0 -38
BITMAP 
000008
000010
000020
000040
000080
FFFFFF
000200
000400
000800
001000
002000
FFFFFF
008000
010000
020000
040000
080000
ENDCHAR
STARTCHAR charAE
ENCODING 174
SWIDTH 1000 0
DWIDTH 38 0
BBX 36 25 1 0
VVECTOR 19 31
SWIDTH1 0 -1000
DWIDTH1 0 -38
BITMAP 
001FFFFFE0
00011E01E0
00011C00E0
00021C0060
00021C0020
00041C0020
00041C0020
00081C0000
00081C0800
00101C0800
00101C0800
00201C1800
003FFFF800
00401C1800
00401C0800
00801C0800
00801C0800
01001C0000
01001C0010
02001C0010
02001C0010
04001C0030
04001C0070
0C001E00F0
FFC1FFFFF0
ENDCHAR
STARTCHAR charAF
ENCODING 175
SWIDTH 737 0
DWIDTH 28 0
BBX 26 26 1 0
VVECTOR 14 31
SWIDTH1 0 -1000
DWIDTH1 0 -38
BITMAP 
00000040
003F0080
00C0C100
03807200
07003C00
0E001C00
1C001E00
1C002E00
38004700
3C008F00
78010780
38020700
78040780
78080780
78100780
38200700
78400780
3C800F00
39000700
1A000E00
1C000E00
0E001C00
17003800
23807000
40C0C000
803F0000
ENDCHAR
STARTCHAR charB0
ENCODING 176
SWIDTH 842 0
DWIDTH 32 0
BBX 28 12 2 6
VVECTOR 16 31
SWIDTH1 0 -1000
DWIDTH1 0 -38
BITMAP 
07000E00
18C03180
2020E040
4011C020
800B8010
80070010
800E0010
801D0010
40388020
20704040
18C03180
07000E00
ENDCHAR
STARTCHAR charB1
ENCODING 177
SWIDTH 842 0
DWIDTH 32 0
BBX 23 22 4 0
VVECTOR 16 31
SWIDTH1 0 -1000
DWIDTH1 0 -38
BITMAP 
003000
003000
003000
003000
003000
003000
003000
003000
FFFFFE
003000
003000
003000
003000
003000
003000
003000
003000
000000
000000
000000
000000
FFFFFE
ENDCHAR
STARTCHAR charB2
ENCODING 178
SWIDTH 579 0
DWIDTH 22 0
BBX 14 21 5 0
VVECTOR 12 31
SWIDTH1 0 -1000
DWIDTH1 0 -38
BITMAP 
0180
0300
0600
0C00
1800
3000
6000
C000
6000
3000
1800
0C00
0600
0300
0180
0000
0000
0000
0000
0000
FFFC
ENDCHAR
STARTCHAR charB3
ENCODING 179
SWIDTH 579 0
DWIDTH 22 0
BBX 14 21 4 0
VVECTOR 11 31
SWIDTH1 0 -1000
DWIDTH1 0 -38
BITMAP 
0C00
0600
0300
0180
00C0
0060
0030
0018
0030
0060
00C0
0180
0300
0600
0C00
0000
0000
0000
0000
0000
FFFC
ENDCHAR
STARTCHAR charB4
ENCODING 180
SWIDTH 842 0
DWIDTH 32 0
BBX 26 25 3 0
VVECTOR 16 31
SWIDTH1 0 -1000
DWIDTH1 0 -38
BITMAP 
FFE0FFC0
0E000C00
07000800
07000800
03801000
03801000
01C02000
01C02000
1FE07C00
00E04000
00708000
00708000
00390000
00390000
1FFFFC00
000E0000
000E0000
000E0000
000E0000
000E0000
000E0000
000E0000
000E0000
001F0000
03FFF800
ENDCHAR
STARTCHAR charB5
ENCODING 181
SWIDTH 579 0
DWIDTH 22 0
BBX 19 23 2 -5
VVECTOR 12 31
SWIDTH1 0 -1000
DWIDTH1 0 -38
BITMAP 
700700
700700
700700
700700
700700
700700
700700
700700
700700
700700
700700
700700
700700
700700
700B00
701300
686100
6780E0
600000
600000
600000
400000
800000
ENDCHAR
STARTCHAR charB6
ENCODING 182
SWIDTH 579 0
DWIDTH 22 0
BBX 18 25 2 0
VVECTOR 11 31
SWIDTH1 0 -1000
DWIDTH1 0 -38
BITMAP 
01F000
060C00
0C0200
0E0100
000180
000180
0001C0
03E180
0C19C0
3005C0
7002C0
6003C0
E001C0
6001C0
E001C0
E001C0
E001C0
E00180
6001C0
E00180
600180
700300
300200
0C0C00
03F000
ENDCHAR
STARTCHAR charB7
ENCODING 183
SWIDTH 842 0
DWIDTH 32 0
BBX 25 33 3 -5
VVECTOR 16 31
SWIDTH1 0 -1000
DWIDTH1 0 -38
BITMAP 
FFFFFC00
78000200
3C000100
1E000080
0F000000
07800000
03C00000
01E00000
00F00000
00780000
003C0000
001E0000
000F0000
00078000
0003C000
0001E000
00008000
00010000
00020000
00040000
00080000
00100000
00200000
00400000
00800000
01000000
02000000
04000080
08000100
10000200
3FFFFC00
7FFFF800
FFFFF000
ENDCHAR
STARTCHAR charB8
ENCODING 184
SWIDTH 842 0
DWIDTH 32 0
BBX 28 25 2 0
VVECTOR 16 31
SWIDTH1 0 -1000
DWIDTH1 0 -38
BITMAP 
FFFFFFF0
0F801F00
07000E00
07000E00
07000E00
07000E00
07000E00
07000E00
07000E00
07000E00
07000E00
07000E00
07000E00
07000E00
07000E00
07000E00
07000E00
07000E00
07000E00
07000E00
07000E00
07000E00
07000E00
0F801F00
FFF0FFF0
ENDCHAR
STARTCHAR charB9
ENCODING 185
SWIDTH 842 0
DWIDTH 32 0
BBX 26 19 3 0
VVECTOR 16 31
SWIDTH1 0 -1000
DWIDTH1 0 -38
BITMAP 
00000040
1FFFFF80
3FDFEF00
60402000
80804000
0180C000
0381C000
0381C000
0381C000
0381C000
0381C000
0381C000
0381C000
0381C000
0381C000
0381C000
03018000
02010000
04020000
ENDCHAR
STARTCHAR charBA
ENCODING 186
SWIDTH 579 0
DWIDTH 22 0
BBX 19 32 1 -4
VVECTOR 11 31
SWIDTH1 0 -1000
DWIDTH1 0 -38
BITMAP 
000F00
0030C0
006060
00E1A0
00E1C0
00E000
00E000
00E000
00E000
00E000
00E000
00E000
00E000
00E000
00E000
00E000
00E000
00E000
00E000
00E000
00E000
00E000
00E000
00E000
00E000
00E000
00E000
70E000
B0E000
C0C000
618000
1E0000
ENDCHAR
STARTCHAR charBB
ENCODING 187
SWIDTH 605 0
DWIDTH 23 0
BBX 21 25 1 0
VVECTOR 12 31
SWIDTH1 0 -1000
DWIDTH1 0 -38
BITMAP 
03F000
0C0C00
180600
3C0700
180700
000700
000700
003B00
01C700
070700
1C0700
380700
700700
700700
700700
380B08
1C3190
03C060
000000
000000
000000
000000
000000
000000
FFFFF0
ENDCHAR
STARTCHAR charBC
ENCODING 188
SWIDTH 605 0
DWIDTH 23 0
BBX 19 25 2 0
VVECTOR 12 31
SWIDTH1 0 -1000
DWIDTH1 0 -38
BITMAP 
01F000
060C00
1C0700
380380
7001C0
7001C0
E000E0
E000E0
E000E0
E000E0
E000E0
E000E0
7001C0
700180
380380
1C0700
060C00
01F000
000000
000000
000000
000000
000000
000000
FFFFE0
ENDCHAR
STARTCHAR charBD
ENCODING 189
SWIDTH 842 0
DWIDTH 32 0
BBX 26 25 3 0
VVECTOR 16 31
SWIDTH1 0 -1000
DWIDTH1 0 -38
BITMAP 
003F0000
01C0E000
07003800
1E001E00
3C000F00
78000780
78000780
F00003C0
70000380
F00003C0
70000380
F00003C0
70000380
70000380
30000300
38000700
18000600
1C000E00
0C000C00
06001800
02001000
01002000
40804080
20408100
1FE1FE00
ENDCHAR
STARTCHAR charBE
ENCODING 190
SWIDTH 921 0
DWIDTH 35 0
BBX 31 18 2 0
VVECTOR 18 31
SWIDTH1 0 -1000
DWIDTH1 0 -38
BITMAP 
07E01F00
181860C0
300D8070
780F0038
300F001C
000E001C
000F000E
0076001E
038FFFFE
0E0E0000
380F0000
700E0000
E00F0000
E00F0000
E00B8004
7011C008
18606030
07801FC0
ENDCHAR
STARTCHAR charBF
ENCODING 191
SWIDTH 605 0
DWIDTH 23 0
BBX 20 19 2 -1
VVECTOR 12 31
SWIDTH1 0 -1000
DWIDTH1 0 -38
BITMAP 
01F010
060C20
1C0740
380180
7003C0
7005C0
E008E0
E010E0
E020E0
E040E0
E080E0
E100E0
7201C0
7401C0
280380
1C0700
260C00
41F000
800000
ENDCHAR
STARTCHAR charC0
ENCODING 192
SWIDTH 579 0
DWIDTH 22 0
BBX 17 25 2 0
VVECTOR 11 31
SWIDTH1 0 -1000
DWIDTH1 0 -38
BITMAP 
00E000
01F000
01F000
00E000
000000
000000
000000
004000
004000
004000
008000
008000
010000
060000
1C0000
380000
700000
700000
E00300
E00780
E00280
700100
700100
380600
07F800
ENDCHAR
STARTCHAR charC1
ENCODING 193
SWIDTH 395 0
DWIDTH 15 0
BBX 5 26 5 -1
VVECTOR 8 31
SWIDTH1 0 -1000
DWIDTH1 0 -38
BITMAP 
70
F8
F8
70
00
00
00
20
20
70
70
70
70
70
70
70
70
70
70
70
70
70
70
70
70
20
ENDCHAR
STARTCHAR charC2
ENCODING 194
SWIDTH 842 0
DWIDTH 32 0
BBX 24 6 4 8
VVECTOR 16 31
SWIDTH1 0 -1000
DWIDTH1 0 -38
BITMAP 
FFFFFF
000003
000003
000003
000003
000003
ENDCHAR
STARTCHAR charC3
ENCODING 195
SWIDTH 842 0
DWIDTH 32 0
BBX 28 33 2 -5
VVECTOR 16 31
SWIDTH1 0 -1000
DWIDTH1 0 -38
BITMAP 
00003FF0
00003000
00007000
00006000
00006000
0000E000
0000C000
0000C000
0001C000
00018000
00018000
00038000
00030000
00030000
00070000
00060000
00060000
000E0000
000C0000
000C0000
001C0000
00180000
04180000
0E380000
16300000
26300000
47700000
83600000
03600000
03E00000
01C00000
01C00000
00800000
ENDCHAR
STARTCHAR charC4
ENCODING 196
SWIDTH 579 0
DWIDTH 22 0
BBX 19 30 1 -5
VVECTOR 11 31
SWIDTH1 0 -1000
DWIDTH1 0 -38
BITMAP 
000F00
0030C0
006060
00E1A0
00E1C0
00E000
00E000
00E000
00E000
00E000
0FFF00
00E000
00E000
00E000
00E000
00E000
00E000
00E000
00E000
00E000
00E000
00E000
00E000
00E000
00E000
70E000
B0E000
C0C000
618000
1E0000
ENDCHAR
STARTCHAR charC5
ENCODING 197
SWIDTH 842 0
DWIDTH 32 0
BBX 23 11 4 7
VVECTOR 16 31
SWIDTH1 0 -1000
DWIDTH1 0 -38
BITMAP 
0FC006
30300C
601818
C007E0
000000
000000
000000
0FC006
30300C
601818
C007E0
ENDCHAR
STARTCHAR charC6
ENCODING 198
SWIDTH 789 0
DWIDTH 30 0
BBX 27 25 1 0
VVECTOR 15 31
SWIDTH1 0 -1000
DWIDTH1 0 -38
BITMAP 
00040000
000E0000
001F0000
00170000
00238000
00238000
0041C000
0041C000
0080E000
0080E000
01007000
01007000
02003800
02003800
04001C00
04001C00
08000E00
08000E00
10000700
10000700
20000380
20000380
400001C0
400001C0
FFFFFFE0
ENDCHAR
STARTCHAR charC7
ENCODING 199
SWIDTH 579 0
DWIDTH 22 0
BBX 17 15 2 4
VVECTOR 11 31
SWIDTH1 0 -1000
DWIDTH1 0 -38
BITMAP 
018180
030300
060600
0C0C00
181800
303000
606000
C0C000
606000
303000
181800
0C0C00
060600
030300
018180
ENDCHAR
STARTCHAR charC8
ENCODING 200
SWIDTH 579 0
DWIDTH 22 0
BBX 17 15 3 4
VVECTOR 12 31
SWIDTH1 0 -1000
DWIDTH1 0 -38
BITMAP 
C0C000
606000
303000
181800
0C0C00
060600
030300
018180
030300
060600
0C0C00
181800
303000
606000
C0C000
ENDCHAR
STARTCHAR charC9
ENCODING 201
SWIDTH 842 0
DWIDTH 32 0
BBX 25 4 3 0
VVECTOR 16 31
SWIDTH1 0 -1000
DWIDTH1 0 -38
BITMAP 
701C0700
F83E0F80
F83E0F80
701C0700
ENDCHAR
STARTCHAR charCA
ENCODING 202
SWIDTH 447 0
DWIDTH 17 0
BBX 0 0 10 -7
VVECTOR 10 -7
SWIDTH1 0 0
DWIDTH1 0 0
BITMAP 
ENDCHAR
STARTCHAR charCB
ENCODING 203
SWIDTH 737 0
DWIDTH 28 0
BBX 26 31 1 0
VVECTOR 14 31
SWIDTH1 0 -1000
DWIDTH1 0 -38
BITMAP 
00380000
001C0000
00060000
00010000
00000000
00000000
000C0000
001E0000
001E0000
002F0000
00270000
00270000
00438000
00438000
00438000
0081C000
0081C000
0081C000
0100E000
0100E000
0100E000
02FF7000
02007000
02007000
04003800
04003800
04003800
08001C00
08001C00
1C002E00
FF81FFC0
ENDCHAR
STARTCHAR charCC
ENCODING 204
SWIDTH 737 0
DWIDTH 28 0
BBX 26 31 1 0
VVECTOR 14 31
SWIDTH1 0 -1000
DWIDTH1 0 -38
BITMAP 
00780C00
01861800
0301E000
00000000
00000000
000C0000
000C0000
001E0000
001E0000
002F0000
00270000
00270000
00438000
00438000
00438000
0081C000
0081C000
0081C000
0100E000
0100E000
0100E000
02FF7000
02007000
02007000
04003800
04003800
04003800
08001C00
08001C00
1C003E00
FF81FFC0
ENDCHAR
STARTCHAR charCD
ENCODING 205
SWIDTH 763 0
DWIDTH 29 0
BBX 25 31 2 0
VVECTOR 15 31
SWIDTH1 0 -1000
DWIDTH1 0 -38
BITMAP 
00F01800
030C3000
0603C000
00000000
00000000
00000000
007F0000
0180C000
07007000
0E003800
1C001C00
38000E00
38000E00
70000700
78000F00
F0000780
70000700
F0000780
F0000780
F0000780
70000700
F0000780
78000F00
70000700
38000E00
38000E00
1C001C00
0E003800
07007000
0180C000
007F0000
ENDCHAR
STARTCHAR charCE
ENCODING 206
SWIDTH 1079 0
DWIDTH 41 0
BBX 37 25 2 0
VVECTOR 21 31
SWIDTH1 0 -1000
DWIDTH1 0 -38
BITMAP 
007FFFFFF0
01807F00F0
07001E0070
0E001E0030
1C000E0010
38000E0010
38000E0010
7000060000
78000E0400
F000060400
7000060400
F000060C00
F00007FC00
F000060C00
7000060400
F000060400
78000E0400
7000060000
38000E0008
38000E0008
1C000E0008
0E001E0018
07001E0038
01807F0078
007FFFFFF8
ENDCHAR
STARTCHAR charCF
ENCODING 207
SWIDTH 974 0
DWIDTH 37 0
BBX 33 18 2 0
VVECTOR 19 31
SWIDTH1 0 -1000
DWIDTH1 0 -38
BITMAP 
01E003C000
06180C3000
1C0E301C00
3807600E00
7003E00700
7003C00700
E001E00380
E001C00780
E001FFFF80
E001C00000
E001E00000
E001C00000
7003E00000
7003E00000
3807700100
1C0E380200
06180C0C00
01E003F000
ENDCHAR
STARTCHAR charD0
ENCODING 208
SWIDTH 395 0
DWIDTH 15 0
BBX 11 1 2 16
VVECTOR 8 31
SWIDTH1 0 -1000
DWIDTH1 0 -38
BITMAP 
FFE0
ENDCHAR
STARTCHAR charD1
ENCODING 209
SWIDTH 842 0
DWIDTH 32 0
BBX 32 1 0 16
VVECTOR 16 31
SWIDTH1 0 -1000
DWIDTH1 0 -38
BITMAP 
FFFFFFFF
ENDCHAR
STARTCHAR charD2
ENCODING 210
SWIDTH 500 0
DWIDTH 19 0
BBX 13 9 3 16
VVECTOR 10 31
SWIDTH1 0 -1000
DWIDTH1 0 -38
BITMAP 
0808
1010
2020
4040
C0C0
C0C0
B0B0
F8F8
7070
ENDCHAR
STARTCHAR charD3
ENCODING 211
SWIDTH 500 0
DWIDTH 19 0
BBX 13 9 3 16
VVECTOR 10 31
SWIDTH1 0 -1000
DWIDTH1 0 -38
BITMAP 
7070
F8F8
6868
1818
1818
1010
2020
4040
8080
ENDCHAR
STARTCHAR charD4
ENCODING 212
SWIDTH 289 0
DWIDTH 11 0
BBX 5 9 3 16
VVECTOR 6 31
SWIDTH1 0 -1000
DWIDTH1 0 -38
BITMAP 
08
10
20
40
C0
C0
B0
F8
70
ENDCHAR
STARTCHAR charD5
ENCODING 213
SWIDTH 289 0
DWIDTH 11 0
BBX 5 9 3 16
VVECTOR 6 31
SWIDTH1 0 -1000
DWIDTH1 0 -38
BITMAP 
70
F8
68
18
18
10
20
40
80
ENDCHAR
STARTCHAR charD6
ENCODING 214
SWIDTH 842 0
DWIDTH 32 0
BBX 22 15 4 6
VVECTOR 15 31
SWIDTH1 0 -1000
DWIDTH1 0 -38
BITMAP 
007800
007800
007800
000000
000000
000000
000000
FFFFFC
000000
000000
000000
000000
007800
007800
007800
ENDCHAR
STARTCHAR charD7
ENCODING 215
SWIDTH 842 0
DWIDTH 32 0
BBX 21 21 5 2
VVECTOR 16 31
SWIDTH1 0 -1000
DWIDTH1 0 -38
BITMAP 
002000
007000
00D800
018C00
030600
060300
0C0180
1800C0
300060
600030
C00018
600030
300060
1800C0
0C0180
060300
030600
018C00
00D800
007000
002000
ENDCHAR
STARTCHAR charD8
ENCODING 216
SWIDTH 658 0
DWIDTH 25 0
BBX 23 32 1 -7
VVECTOR 13 31
SWIDTH1 0 -1000
DWIDTH1 0 -38
BITMAP 
0381C0
0381C0
0381C0
000000
000000
000000
000000
FF81FE
1C0030
0E0020
0E0020
070040
070040
038080
038080
01C080
01C100
00E100
00E200
007200
007400
003400
003C00
001800
001800
001000
001000
702000
F02000
804000
418000
3E0000
ENDCHAR
STARTCHAR missing
ENCODING -1
SWIDTH 632 0
DWIDTH 24 0
BBX 21 27 1 -1
VVECTOR 12 31
SWIDTH1 0 -1000
DWIDTH1 0 -38
BITMAP 
FFFFF8
FC03F8
F00078
E00038
C1F038
C3FC18
C0FC18
C0FC18
E1FC38
FFF838
FFF078
FFE0F8
FFC1F8
FF87F8
FF0FF8
FF0FF8
FE1FF8
FE1FF8
FE1FF8
FFFFF8
FFFFF8
FFFFF8
FE0FF8
FC07F8
FC07F8
FE0FF8
FFFFF8
ENDCHAR
ENDFONT
